<svg xmlns="http://www.w3.org/2000/svg" xmlns:xlink="http://www.w3.org/1999/xlink" width="568" zoomAndPan="magnify" viewBox="0 0 426 626.249985" height="835" preserveAspectRatio="xMidYMid meet" version="1.0"><defs><g/></defs><g fill="#f5ac0d" fill-opacity="1"><g transform="translate(124.20724, 396.630156)"><g><path d="M 94.28125 -106.03125 L 94.28125 -155.171875 C 94.28125 -177.628906 99.945312 -193.546875 111.28125 -202.921875 C 122.613281 -212.304688 137.863281 -217.304688 157.03125 -217.921875 L 161.96875 -195.359375 C 141.15625 -192.878906 131.0625 -183.191406 131.6875 -166.296875 L 154.5625 -166.296875 L 154.5625 -106.03125 Z M 12.359375 -106.03125 L 12.359375 -155.171875 C 12.359375 -177.628906 17.972656 -193.546875 29.203125 -202.921875 C 40.441406 -212.304688 55.742188 -217.304688 75.109375 -217.921875 L 79.75 -195.359375 C 58.726562 -192.878906 48.734375 -183.191406 49.765625 -166.296875 L 72.640625 -166.296875 L 72.640625 -106.03125 Z M 12.359375 -106.03125 "/></g></g></g><path stroke-linecap="butt" transform="matrix(5.519792, 0, 0, 5.519792, 132.568251, 101.533023)" fill="none" stroke-linejoin="miter" d="M 17.076001 35.791337 L 17.076001 26.890837 C 17.076001 22.816719 18.10143 19.931505 20.152288 18.23661 C 22.212347 16.541007 24.978671 15.634468 28.45126 15.515578 L 29.340107 19.603849 C 25.575245 20.050395 23.748014 21.804736 23.857704 24.86687 L 27.999759 24.86687 L 27.999759 35.791337 Z M 2.242306 35.791337 L 2.242306 26.890837 C 2.242306 22.816719 3.258535 19.931505 5.290994 18.23661 C 7.323453 16.541007 10.094731 15.634468 13.603411 15.515578 L 14.451213 19.603849 C 10.64106 20.050395 8.827275 21.804736 9.009856 24.86687 L 13.166065 24.86687 L 13.166065 35.791337 Z M 2.242306 35.791337 " stroke="#191d16" stroke-width="0.56" stroke-opacity="1" stroke-miterlimit="4"/></svg>